<svg xmlns="http://www.w3.org/2000/svg" viewBox="0 0 512 512" width="512" height="512">
  <defs>
    <linearGradient id="bg" x1="0%" y1="0%" x2="100%" y2="100%">
      <stop offset="0%" stop-color="#0f0f1a"/>
      <stop offset="100%" stop-color="#1a1a2e"/>
    </linearGradient>
    <linearGradient id="letter" x1="0%" y1="0%" x2="100%" y2="100%">
      <stop offset="0%" stop-color="#ffffff"/>
      <stop offset="100%" stop-color="#e2e8f0"/>
    </linearGradient>
    <linearGradient id="dot" x1="0%" y1="0%" x2="100%" y2="100%">
      <stop offset="0%" stop-color="#805AD5"/>
      <stop offset="100%" stop-color="#B794F4"/>
    </linearGradient>
  </defs>
  <!-- Background -->
  <rect width="512" height="512" rx="112" fill="url(#bg)"/>
  <!-- Subtle inner glow -->
  <rect x="2" y="2" width="508" height="508" rx="110" fill="none" stroke="white" stroke-opacity="0.06" stroke-width="2"/>
  <!-- Shopping bag body -->
  <path d="M152 200 C152 192 158 186 166 186 L346 186 C354 186 360 192 360 200 L344 390 C343 398 337 404 329 404 L183 404 C175 404 169 398 168 390 Z" fill="none" stroke="url(#letter)" stroke-width="16" stroke-linejoin="round" stroke-linecap="round" opacity="0.9"/>
  <!-- Bag handles -->
  <path d="M208 186 L208 148 C208 120 230 108 256 108 C282 108 304 120 304 148 L304 186" fill="none" stroke="url(#letter)" stroke-width="16" stroke-linecap="round" opacity="0.9"/>
  <!-- Accent dot inside bag -->
  <circle cx="256" cy="310" r="22" fill="url(#dot)"/>
</svg>
